<?xml version="1.0" encoding="utf-8"?>
<!-- Generator: Adobe Illustrator 19.2.1, SVG Export Plug-In . SVG Version: 6.00 Build 0)  -->
<svg version="1.1" id="Capa_1" xmlns="http://www.w3.org/2000/svg" xmlns:xlink="http://www.w3.org/1999/xlink" x="0px" y="0px"
	 width="512px" height="512px" viewBox="0 0 512 512" style="enable-background:new 0 0 512 512;" xml:space="preserve">
<style type="text/css">
	.st0{fill:#606060;}
</style>
<g>
	<g>
		<path class="st0" d="M511,256C511,115.2,396.8,1,256,1C115.2,1,1,115.2,1,256c0,140.8,114.2,255,255,255
			C396.8,511,511,396.8,511,256z M24.2,256C24.2,128,128,24.2,256,24.2S487.8,128,487.8,256S384,487.8,256,487.8S24.2,384,24.2,256z
			"/>
		<path class="st0" d="M265.8,403.2V256h48.6l7.7-48.8h-56.2v-24.5c0-12.7,4.2-24.9,22.4-24.9h36.5v-48.7h-51.8
			c-43.6,0-55.5,28.7-55.5,68.5v29.5h-29.9V256h29.9v147.2H265.8L265.8,403.2z"/>
	</g>
</g>
</svg>
