<?xml version="1.0" encoding="utf-8"?>
<!-- Generator: Adobe Illustrator 19.2.1, SVG Export Plug-In . SVG Version: 6.00 Build 0)  -->
<svg version="1.1" id="Capa_1" xmlns="http://www.w3.org/2000/svg" xmlns:xlink="http://www.w3.org/1999/xlink" x="0px" y="0px"
	 width="512px" height="512px" viewBox="0 0 512 512" style="enable-background:new 0 0 512 512;" xml:space="preserve">
<style type="text/css">
	.st0{fill:#606060;}
</style>
<g>
	<g>
		<path class="st0" d="M292,337.2c0-25-14.5-37.3-30.4-50.8l-13.1-10.2c-4-3.2-9.4-7.6-9.4-15.6c0-8,5.4-13.1,10.2-17.8
			c15.2-12,30.4-24.6,30.4-51.5c0-27.6-17.4-42.1-25.7-48.9l0,0h22.5l23.2-13.1h-74.7c-19.6,0-44.2,2.9-64.9,19.9
			c-15.6,13.4-23.2,31.9-23.2,48.6c0,28.3,21.7,56.9,60.2,56.9c3.6,0,7.6-0.4,11.6-0.7c-1.8,4.4-3.6,8-3.6,14.1
			c0,11.2,5.8,18.1,10.9,24.6c-16.3,1.1-46.8,2.9-69.2,16.7c-21.4,12.7-27.9,31.2-27.9,44.2c0,26.8,25.4,51.8,77.9,51.8
			C259,405.7,292,371.3,292,337.2z M214,244.8c-31.2,0-45.3-40.2-45.3-64.5c0-9.4,1.8-19.2,8-26.8c5.8-7.3,15.9-12,25.4-12
			c30.1,0,45.7,40.6,45.7,66.7c0,6.5-0.7,18.1-9.1,26.5C232.9,240.4,223.1,244.8,214,244.8z M214.4,390.5
			c-38.8,0-63.8-18.5-63.8-44.2s23.2-34.4,31.2-37.3c15.2-5.1,34.8-5.8,38.1-5.8c3.6,0,5.4,0,8.3,0.4c27.6,19.6,39.5,29.3,39.5,47.8
			C267.7,373.8,249.2,390.5,214.4,390.5z"/>
		<polygon class="st0" points="295.2,266.8 334.5,266.8 334.5,306 354.1,306 354.1,266.8 393.3,266.8 393.3,247.2 354.1,247.2 
			354.1,208 334.5,208 334.5,247.2 295.2,247.2 		"/>
		<path class="st0" d="M511,257C511,116.2,396.8,2,256,2C115.2,2,1,116.2,1,257c0,140.8,114.2,255,255,255
			C396.8,512,511,397.8,511,257z M24.2,257C24.2,129,128,25.2,256,25.2S487.8,129,487.8,257S384,488.8,256,488.8S24.2,385,24.2,257z
			"/>
	</g>
</g>
</svg>
