<svg id="Layer_1" data-name="Layer 1" xmlns="http://www.w3.org/2000/svg" viewBox="0 0 294.99 192.01"><title>jobi_logo</title><g id="_Group_" data-name="&lt;Group&gt;"><polygon id="_Path_" data-name="&lt;Path&gt;" points="291.5 6.73 249.54 6.73 255.9 47.01 285.14 47.01 291.5 6.73" style="fill:#ff530d"/><polygon id="_Path_2" data-name="&lt;Path&gt;" points="246.04 163.81 270.52 192.01 294.99 163.81 284.89 59.09 256.14 59.09 246.04 163.81" style="fill:#383636"/></g><path d="M345.73,317.19V151.37h24.19v176.4L354.8,342.89H321V322.23h19.66Z" transform="translate(-321.03 -151.37)" style="fill:#383636"/><path d="M457.87,327.77l-15.12,15.12H400.66l-15.12-15.12V166.49l15.12-15.12h42.08l15.12,15.12V327.77ZM414.77,172l-5,5V317.19l5,5h13.86l5-5V177.08l-5-5H414.77Z" transform="translate(-321.03 -151.37)" style="fill:#383636"/><path d="M544.8,166.49V230l-15.12,15.12,15.12,15.12v67.54l-15.12,15.12H473.74V151.37h55.94Zm-24.19,64V176.57l-5-5H497.93v64h17.64Zm-22.68,25.2v66.53h17.64l5-5V260.74l-5-5H497.93Z" transform="translate(-321.03 -151.37)" style="fill:#383636"/></svg>