<?xml version="1.0" encoding="utf-8"?>
<!-- Generator: Adobe Illustrator 19.2.1, SVG Export Plug-In . SVG Version: 6.00 Build 0)  -->
<svg version="1.1" id="Capa_1" xmlns="http://www.w3.org/2000/svg" xmlns:xlink="http://www.w3.org/1999/xlink" x="0px" y="0px"
	 width="512px" height="512px" viewBox="0 0 512 512" style="enable-background:new 0 0 512 512;" xml:space="preserve">
<style type="text/css">
	.st0{fill:#606060;}
</style>
<g>
	<g>
		<path class="st0" d="M365.3,206.3c0-2.6,0-5.1-0.2-7.7c11-8.2,20.6-18.5,28.1-30.2c-10.1,4.5-21,7.6-32.4,8.9
			c11.6-7.2,20.6-18.6,24.8-32.4c-10.9,6.6-23,11.3-35.8,13.8c-10.3-11.7-24.9-19.1-41.1-19.4c-31.1-0.5-56.3,25.8-56.3,58.7
			c0,4.7,0.5,9.2,1.5,13.6c-46.9-3-88.4-27.4-116.1-64.2c-4.8,8.8-7.6,19.1-7.6,30.1c0,20.9,9.9,39.4,25.1,50.4
			c-9.2-0.4-17.9-3.2-25.5-7.8c0,0.3,0,0.5,0,0.8c0,29.2,19.4,53.6,45.2,59.3c-4.7,1.3-9.7,2-14.8,2c-3.6,0-7.2-0.4-10.6-1.2
			c7.2,23.9,28,41.4,52.6,41.9c-19.3,16-43.6,25.5-70,25.5c-4.5,0-9-0.3-13.4-0.9c24.9,17.1,54.5,27.1,86.4,27.1
			C308.7,374.7,365.3,284.5,365.3,206.3z"/>
		<path class="st0" d="M511,257C511,116.2,396.8,2,256,2C115.2,2,1,116.2,1,257c0,140.8,114.2,255,255,255
			C396.8,512,511,397.8,511,257z M24.2,257C24.2,129,128,25.2,256,25.2S487.8,129,487.8,257S384,488.8,256,488.8S24.2,385,24.2,257z
			"/>
	</g>
</g>
</svg>
